<svg width="122" height="64" viewBox="0 0 122 64" fill="none" xmlns="http://www.w3.org/2000/svg">
<path d="M68.7539 10.6953H73.5391V25.2695C74.6146 23.8659 75.8997 22.7995 77.3945 22.0703C78.8893 21.3229 80.5117 20.9492 82.2617 20.9492C85.9076 20.9492 88.8607 22.207 91.1211 24.7227C93.3997 27.2201 94.5391 30.9115 94.5391 35.7969C94.5391 40.4271 93.418 44.2734 91.1758 47.3359C88.9336 50.3984 85.8255 51.9297 81.8516 51.9297C79.6276 51.9297 77.75 51.3919 76.2188 50.3164C75.3073 49.6784 74.332 48.6576 73.293 47.2539V51H68.7539V10.6953ZM81.5508 47.582C84.2122 47.582 86.1992 46.5247 87.5117 44.4102C88.8424 42.2956 89.5078 39.5065 89.5078 36.043C89.5078 32.9622 88.8424 30.4102 87.5117 28.3867C86.1992 26.3633 84.2578 25.3516 81.6875 25.3516C79.4453 25.3516 77.4766 26.181 75.7812 27.8398C74.1042 29.4987 73.2656 32.2331 73.2656 36.043C73.2656 38.7956 73.612 41.0286 74.3047 42.7422C75.599 45.9688 78.0143 47.582 81.5508 47.582ZM108.242 20.8672C111.541 20.8672 114.221 21.6693 116.281 23.2734C118.359 24.8776 119.607 27.6393 120.027 31.5586H115.242C114.95 29.7539 114.285 28.2591 113.245 27.0742C112.206 25.8711 110.538 25.2695 108.242 25.2695C105.106 25.2695 102.864 26.8008 101.515 29.8633C100.64 31.8503 100.202 34.3021 100.202 37.2188C100.202 40.1536 100.822 42.6237 102.062 44.6289C103.301 46.6341 105.252 47.6367 107.913 47.6367C109.955 47.6367 111.568 47.0169 112.753 45.7773C113.956 44.5195 114.786 42.806 115.242 40.6367H120.027C119.48 44.5195 118.113 47.3633 115.925 49.168C113.738 50.9544 110.939 51.8477 107.531 51.8477C103.702 51.8477 100.649 50.4531 98.3705 47.6641C96.0918 44.8568 94.9525 41.3568 94.9525 37.1641C94.9525 32.0234 96.2012 28.0221 98.6986 25.1602C101.196 22.2982 104.377 20.8672 108.242 20.8672Z" fill="#1E1E1E"/>
<path d="M47.1151 51H0L20.94 10.7021H68.055L47.1151 51Z" fill="#1E1E1E"/>
</svg>
