<svg width="122" height="64" viewBox="0 0 122 64" fill="none" xmlns="http://www.w3.org/2000/svg">
<path d="M68.754 10.6953H73.5392V25.2695C74.6147 23.8659 75.8999 22.7995 77.3947 22.0703C78.8894 21.3229 80.5118 20.9492 82.2618 20.9492C85.9077 20.9492 88.8608 22.207 91.1212 24.7227C93.3999 27.2201 94.5392 30.9115 94.5392 35.7969C94.5392 40.4271 93.4181 44.2734 91.1759 47.3359C88.9337 50.3984 85.8256 51.9297 81.8517 51.9297C79.6277 51.9297 77.7501 51.3919 76.2189 50.3164C75.3074 49.6784 74.3322 48.6576 73.2931 47.2539V51H68.754V10.6953ZM81.5509 47.582C84.2124 47.582 86.1993 46.5247 87.5118 44.4102C88.8426 42.2956 89.5079 39.5065 89.5079 36.043C89.5079 32.9622 88.8426 30.4102 87.5118 28.3867C86.1993 26.3633 84.2579 25.3516 81.6876 25.3516C79.4454 25.3516 77.4767 26.181 75.7814 27.8398C74.1043 29.4987 73.2657 32.2331 73.2657 36.043C73.2657 38.7956 73.6121 41.0286 74.3048 42.7422C75.5991 45.9688 78.0144 47.582 81.5509 47.582ZM108.242 20.8672C111.541 20.8672 114.221 21.6693 116.281 23.2734C118.359 24.8776 119.608 27.6393 120.027 31.5586H115.242C114.95 29.7539 114.285 28.2591 113.246 27.0742C112.207 25.8711 110.539 25.2695 108.242 25.2695C105.106 25.2695 102.864 26.8008 101.515 29.8633C100.64 31.8503 100.203 34.3021 100.203 37.2188C100.203 40.1536 100.822 42.6237 102.062 44.6289C103.302 46.6341 105.252 47.6367 107.914 47.6367C109.955 47.6367 111.569 47.0169 112.753 45.7773C113.957 44.5195 114.786 42.806 115.242 40.6367H120.027C119.48 44.5195 118.113 47.3633 115.925 49.168C113.738 50.9544 110.94 51.8477 107.531 51.8477C103.703 51.8477 100.649 50.4531 98.3706 47.6641C96.0919 44.8568 94.9526 41.3568 94.9526 37.1641C94.9526 32.0234 96.2013 28.0221 98.6987 25.1602C101.196 22.2982 104.377 20.8672 108.242 20.8672Z" fill="white"/>
<path d="M47.1151 51H0L20.94 10.7021H68.055L47.1151 51Z" fill="white"/>
</svg>
