<?xml version="1.0" encoding="UTF-8"?>
<svg id="Layer_2" data-name="Layer 2" xmlns="http://www.w3.org/2000/svg" viewBox="0 0 228.98 228.98">
  <defs>
    <style>
      .cls-1 {
        fill: #fff;
      }
    </style>
  </defs>
  <g id="Layer_5" data-name="Layer 5">
    <circle class="cls-1" cx="114.49" cy="114.49" r="114.49"/>
    <path d="M176.99,40.25c-12.75,9.09-11.25,13.42-11.25,13.42,9.32,5.07,14.16-.67,28.55-8.57-8.05,15.35-18.11,16.55-20.8,22.14,5.22-6.86,16.17.52,14.16-.3s-7.98,5.52-2.91,3.95,6.48,1.86,6.48,1.86c0,0-3.13,1.79-3.73,7.83s17.59,16.25,17.59,16.25c0,0-25.04,11.18-20.8,11.78,11.52,1.62,14.46-1.64,28.55-13.94-3.65,12.82-22.96,23.25-21.39,23.7s-.89,6.19-3.65,8.2,6.41,3.65,6.41,3.65c0,0-11.63,6.34-12.45,12.3s11.4,13.12,11.4,13.12c-7.75-2.16-12.22,2.61-12.22,2.61,0,0-3.06,3.58-2.16,9.02-17.22-3.88-17.89,19.75-18.11,26.46-8.65,1.94-18.04-5.59-20.2-7.3s-12.37,6.48-12.37,6.48c0,0-3.2-4.84-6.63-6.41s-17.07,14.09-17.07,14.09c0,0-5.22-17.14-13.79-14.76-17.25,4.8-26.68,3.35-25.19,2.16,2.31-1.85,10.43-7.98,2.09-5.22s-21.91-3.65-19.16-4.84,1.64-7.83.6-10.96-7.68,2.39-14.39,1.86c5.59-4.92,10.58-18.11,12.45-22.29s-26.01,1.64-19.3-1.04,16.77-16.62,19.68-22.51-17.14-7.3-12.97-9.09,13.04-10.21,12.3-11.11-2.83.97-2.83.97c-.3-2.61,4.92-5.59,2.61-5.52s-1.19-1.57-1.19-1.57c5.37-1.86,8.12-11.93,8.12-11.93,0,0-8.8,1.12-12.22-2.98,19.23-6.41,18.63-19.23,16.47-17.29s-7.23-1.19-4.92-1.57,8.27-8.12,9.39-9.54-5.52-3.73-5.52-3.73c1.79-2.83,8.12,1.71,10.36-.07.37-4.99-3.06-3.65-4.99-5.44s.07-4.55-1.71-5.59c2.36-2.28,8.94,7.23,15.58,3.43s13.34-.15,13.34-.15c-.07-2.09-4.17-8.2-6.71-13.04s-8.8-6.48-8.8-6.48c0,0,5.22-4.02,11.18,4.1s9.17,12.67,16.7,14.24c4.25.88,8.87.07,16.25-10.43s9.91-7.16,9.91-7.16c-3.95.89-6.41,13.79-5.89,14.09s4.92,1.42,11.78,1.19,7.38-4.99,14.68-10.06,6.86-.97,6.86-.97c-5.81,1.19-10.81,11.48-13.49,14.31,21.02,3.65,25.04.45,29.89-2.16s5.14.89,5.14.89M87.81,74.95c-3.57-.29-9.61-.3-12.22,14.68s-8.94,28.62-10.36,30.19-16.7,30.86,13.86,42.63,22.06,13.94,41.44,12.22,38.76-21.24,41.14-26.61,8.94-24.52,4.02-30.04-8.72-16.77-8.2-24.45-3.8-21.61-12.22-21.54-20.5,6.19-20.05,20.12,1.27,11.78,1.27,11.78c0,0,10.51,1.57,7.53,11.7s-7.16,12.37-18.48,12-21.54-2.68-19.9-12.07,10.36-10.88,12.3-12,3.13-12.45-1.71-18.78-10.96-9.24-18.41-9.84Z"/>
    <path d="M130.22,99.4c-1.34-3.58,6.26-22.29,13.42-23.25s9.32,1.64,10.14,7.83,5.89,19.16-7.23,24.07-16.32-8.65-16.32-8.65ZM144.82,102.9c7.75-3.58,2.68-16.7.45-17.52s-8.27,10.73-7.98,12.82c0,0-.22,8.27,7.53,4.7Z"/>
    <path d="M85.57,109.68c-13.12-4.92-8.05-17.89-7.23-24.07s2.98-8.8,10.14-7.83,14.76,19.68,13.42,23.25c0,0-3.2,13.57-16.32,8.65ZM94.81,99.84c.3-2.09-5.74-13.64-7.98-12.82s-7.3,13.94.45,17.52c7.75,3.58,7.53-4.7,7.53-4.7Z"/>
    <path d="M110.76,127.83c2.76-1.03,2.46,4.92,3.2,7.53s4.99,3.43,5.74-3.06,4.32-2.76,4.32-2.76c1.23,7.66,8.42,9.39,11.33,10.29s2.16-.97,6.19-.3c8.46,1.41,11.11-11.25,12.52-14.09s4.4.75,3.35,1.64-8.57,25.27-16.62,30.04-14.61,7.75-28.4,8.8-23.7-7.6-31.3-9.61-11.7-18.41-13.42-20.12-3.13-9.32.37-9.17,14.85,15.02,22.43,14.83c9.09-.22,17.07-12.82,20.27-14.01ZM92.52,153.28c5.7.84,12.86-3.97,14.87-4.02s2.96,3.07,5.53,3.41,2.4-2.07,5.98-2.4,5.31,4.3,10.79,2.68,9.06-7.55,7.77-6.71-7.55,2.91-10.4,3.58-6.88-2.74-8.11-3.02-1.4,1.79-2.4,2.35-1.62-.73-4.3-.11-4.64-2.63-5.42-1.84-11.24,3.58-14.76,3.69-6.54-2.52-6.54-2.52c0,0,1.29,4.08,6.99,4.92Z"/>
  </g>
</svg>