<svg width="53" height="53" viewBox="0 0 53 53" fill="none" xmlns="http://www.w3.org/2000/svg">
<path d="M38.6457 14.3541H38.6678M15.4582 4.41663H37.5415C43.6396 4.41663 48.5832 9.36015 48.5832 15.4583V37.5416C48.5832 43.6398 43.6396 48.5833 37.5415 48.5833H15.4582C9.36003 48.5833 4.4165 43.6398 4.4165 37.5416V15.4583C4.4165 9.36015 9.36003 4.41663 15.4582 4.41663ZM35.3332 25.1087C35.6057 26.9466 35.2918 28.8236 34.4361 30.4728C33.5803 32.122 32.2264 33.4593 30.5668 34.2947C28.9072 35.13 27.0264 35.4207 25.192 35.1256C23.3577 34.8304 21.6631 33.9643 20.3493 32.6505C19.0355 31.3367 18.1694 29.6421 17.8742 27.8078C17.5791 25.9734 17.8698 24.0926 18.7051 22.433C19.5405 20.7734 20.8778 19.4195 22.527 18.5637C24.1762 17.708 26.0532 17.3941 27.8911 17.6666C29.7658 17.9446 31.5014 18.8182 32.8415 20.1583C34.1816 21.4984 35.0552 23.234 35.3332 25.1087Z" stroke="#1E1E1E" stroke-width="4" stroke-linecap="round" stroke-linejoin="round"/>
</svg>
