<svg width="53" height="53" viewBox="0 0 53 53" fill="none" xmlns="http://www.w3.org/2000/svg">
<path d="M38.6458 14.3542H38.6679M15.4583 4.41675H37.5416C43.6398 4.41675 48.5833 9.36027 48.5833 15.4584V37.5417C48.5833 43.6399 43.6398 48.5834 37.5416 48.5834H15.4583C9.36015 48.5834 4.41663 43.6399 4.41663 37.5417V15.4584C4.41663 9.36027 9.36015 4.41675 15.4583 4.41675ZM35.3333 25.1088C35.6058 26.9467 35.2919 28.8237 34.4362 30.4729C33.5804 32.1221 32.2265 33.4594 30.5669 34.2948C28.9073 35.1301 27.0265 35.4209 25.1922 35.1257C23.3578 34.8305 21.6632 33.9644 20.3494 32.6506C19.0356 31.3369 18.1695 29.6423 17.8744 27.8079C17.5792 25.9735 17.8699 24.0928 18.7053 22.4332C19.5406 20.7735 20.878 19.4196 22.5271 18.5639C24.1763 17.7081 26.0533 17.3942 27.8912 17.6667C29.7659 17.9447 31.5015 18.8183 32.8416 20.1584C34.1817 21.4985 35.0553 23.2341 35.3333 25.1088Z" stroke="#F3F3F3" stroke-width="3.5" stroke-linecap="round" stroke-linejoin="round"/>
</svg>
