<svg width="49" height="49" viewBox="0 0 49 49" fill="none" xmlns="http://www.w3.org/2000/svg">
<g clip-path="url(#clip0_44_315)">
<path d="M24.4905 0C10.9864 0 0 10.9872 0 24.4924C0 38.006 10.9864 49 24.4905 49C38.005 49 49 38.006 49 24.4924C49 10.9872 38.005 0 24.4905 0ZM12.062 33.4919C14.9015 32.6276 17.8127 32.1893 20.7145 32.1893C25.6427 32.1893 30.508 33.4382 34.7866 35.8025C35.0411 35.9411 35.2724 36.3996 35.3762 36.9704C35.48 37.5411 35.4387 38.1279 35.2721 38.4332C35.0618 38.8249 34.6351 39.0781 34.1848 39.0781C33.9617 39.0781 33.7655 39.0279 33.5693 38.9219C29.6416 36.763 25.1966 35.6217 20.7145 35.6217C18.0066 35.6217 15.3482 36.0226 12.8155 36.812C12.6921 36.8494 12.5652 36.8686 12.4383 36.8686C11.8837 36.8687 11.4024 36.5154 11.2409 35.9912C11.0229 35.2745 11.4739 33.6842 12.062 33.4919ZM10.9937 24.4683C14.1584 23.608 17.4291 23.1717 20.7146 23.1717C26.6211 23.1717 32.4864 24.6009 37.68 27.3068C38.0441 27.4916 38.3124 27.8048 38.4353 28.1888C38.5599 28.5778 38.5224 28.996 38.3278 29.3692C37.8643 30.2762 37.3226 30.8857 36.9794 30.8857C36.7362 30.8857 36.5015 30.8274 36.2677 30.7106C31.445 28.1993 26.2123 26.9259 20.7145 26.9259C17.6564 26.9259 14.6561 27.328 11.7998 28.1204C11.667 28.1564 11.5306 28.1745 11.3948 28.1745C10.7077 28.1747 10.1022 27.7105 9.9229 27.0478C9.69332 26.1859 10.2179 24.6793 10.9937 24.4683ZM10.7201 18.5728C10.575 18.6086 10.4267 18.6266 10.2792 18.6266C9.44881 18.6267 8.72923 18.0656 8.52937 17.2631C8.27891 16.2473 8.91446 15.0673 9.83486 14.8354C13.4144 13.9562 17.0748 13.5103 20.7145 13.5103C27.7602 13.5103 34.5079 15.0944 40.7725 18.2195C41.2076 18.4341 41.5319 18.8046 41.6861 19.2626C41.8404 19.7211 41.8063 20.2147 41.591 20.6507C41.2977 21.2379 40.6637 21.8701 39.965 21.8701C39.6956 21.8701 39.419 21.8069 39.174 21.6919C33.4194 18.8128 27.2088 17.3529 20.7146 17.3529C17.3772 17.3531 14.0146 17.7634 10.7201 18.5728Z" fill="#1E1E1E"/>
</g>
<defs>
<clipPath id="clip0_44_315">
<rect width="49" height="49" fill="white"/>
</clipPath>
</defs>
</svg>
