<svg width="56" height="56" viewBox="0 0 56 56" fill="none" xmlns="http://www.w3.org/2000/svg">
<path d="M52.5934 14.98C52.3162 13.8727 51.7517 12.858 50.9569 12.0387C50.1621 11.2193 49.1651 10.6241 48.0667 10.3134C44.0534 9.33337 28 9.33337 28 9.33337C28 9.33337 11.9467 9.33337 7.93337 10.4067C6.83494 10.7175 5.83798 11.3126 5.04317 12.132C4.24837 12.9514 3.68387 13.966 3.4067 15.0734C2.6722 19.1463 2.31292 23.2781 2.33337 27.4167C2.30718 31.5865 2.66649 35.7497 3.4067 39.8534C3.71227 40.9263 4.28941 41.9024 5.08237 42.6872C5.87532 43.4719 6.85728 44.0389 7.93337 44.3334C11.9467 45.4067 28 45.4067 28 45.4067C28 45.4067 44.0534 45.4067 48.0667 44.3334C49.1651 44.0226 50.1621 43.4275 50.9569 42.6081C51.7517 41.7887 52.3162 40.7741 52.5934 39.6667C53.3222 35.6244 53.6815 31.5242 53.6667 27.4167C53.6929 23.2469 53.3336 19.0837 52.5934 14.98Z" stroke="#1E1E1E" stroke-width="4" stroke-linecap="round" stroke-linejoin="round"/>
<path d="M22.75 35.0467L36.1667 27.4167L22.75 19.7867V35.0467Z" stroke="#1E1E1E" stroke-width="4" stroke-linecap="round" stroke-linejoin="round"/>
</svg>
